<?xml version="1.0" encoding="utf-8"?>
<!-- Generator: Adobe Illustrator 16.0.0, SVG Export Plug-In . SVG Version: 6.00 Build 0)  -->
<!DOCTYPE svg PUBLIC "-//W3C//DTD SVG 1.1//EN" "http://www.w3.org/Graphics/SVG/1.1/DTD/svg11.dtd">
<svg version="1.1" id="Layer_1" xmlns="http://www.w3.org/2000/svg" xmlns:xlink="http://www.w3.org/1999/xlink" x="0px" y="0px"
	 width="70px" height="70px" viewBox="0 0 70 70" enable-background="new 0 0 70 70" xml:space="preserve">
<g>
	<path fill="#F49B6C" d="M70,35c0,19.329-15.672,35-35,35C15.668,70,0,54.329,0,35S15.668,0,35,0C54.328,0,70,15.671,70,35"/>
	<path fill="#F8C3A7" d="M2.626,48.311C7.863,61.037,20.382,70,35,70c14.616,0,27.133-8.963,32.374-21.689H2.626z"/>
	<polygon fill="#E08E64" points="58.778,48.41 10.235,48.41 15.382,17.5 27.005,20.62 42.263,23.718 53.998,18.846 	"/>
	<polygon fill="#E6B49B" points="53.086,54.26 15.513,54.26 10.235,48.311 58.778,48.311 	"/>
	<g>
		<path fill="#F1E6D4" d="M51.117,16.033H17.896c-1.592,0-2.881,1.263-2.881,2.812v33.61c0,1.554,1.289,2.812,2.881,2.812h33.221
			c1.592,0,2.881-1.259,2.881-2.812v-33.61C53.998,17.296,52.709,16.033,51.117,16.033z M26.833,48.875h-5.888V31.164h5.888V48.875z
			 M23.888,28.743h-0.039c-1.976,0-3.253-1.362-3.253-3.062c0-1.735,1.318-3.06,3.331-3.06c2.015,0,3.255,1.324,3.294,3.06
			C27.221,27.381,25.941,28.743,23.888,28.743z M48.063,48.875h-5.889v-9.477c0-2.379-0.85-4.006-2.981-4.006
			c-1.626,0-2.596,1.1-3.022,2.154c-0.154,0.381-0.193,0.903-0.193,1.436v9.893h-5.888c0,0,0.078-16.051,0-17.711h5.888v2.506
			c0.783-1.207,2.182-2.923,5.307-2.923c3.873,0,6.779,2.531,6.779,7.972V48.875z"/>
		<path fill="#F1E6D4" d="M35.978,33.729V33.67c-0.012,0.02-0.025,0.044-0.039,0.059H35.978z"/>
	</g>
</g>
</svg>
