<?xml version="1.0" encoding="utf-8"?>
<!-- Generator: Adobe Illustrator 16.0.0, SVG Export Plug-In . SVG Version: 6.00 Build 0)  -->
<!DOCTYPE svg PUBLIC "-//W3C//DTD SVG 1.1//EN" "http://www.w3.org/Graphics/SVG/1.1/DTD/svg11.dtd">
<svg version="1.1" id="Layer_1" xmlns="http://www.w3.org/2000/svg" xmlns:xlink="http://www.w3.org/1999/xlink" x="0px" y="0px"
	 width="70px" height="70px" viewBox="0 0 70 70" enable-background="new 0 0 70 70" xml:space="preserve">
<g>
	<path fill-rule="evenodd" clip-rule="evenodd" fill="#F49B6C" d="M70,35c0,19.329-15.672,35-35,35C15.668,70,0,54.329,0,35
		S15.668,0,35,0C54.328,0,70,15.671,70,35"/>
	<path fill-rule="evenodd" clip-rule="evenodd" fill="#F8C3A7" d="M2.626,48.31C7.863,61.037,20.382,70,35,70
		c14.616,0,27.133-8.963,32.374-21.69H2.626z"/>
	<polygon fill-rule="evenodd" clip-rule="evenodd" fill="#E08E64" points="49.986,48.269 19.027,48.269 25.643,26.49 29.723,30.546 
		39.453,32.522 44.387,26.49 	"/>
	<polygon fill-rule="evenodd" clip-rule="evenodd" fill="#E6B49B" points="44.531,55.467 25.468,55.467 19.027,48.269 
		49.986,48.269 	"/>
	<path fill="#F1E6D4" d="M44.387,26.49h-6.383v-4.187c0-1.572,1.041-1.939,1.775-1.939c0.732,0,4.504,0,4.504,0v-6.912l-6.203-0.024
		c-6.888,0-8.455,5.155-8.455,8.455v4.607h-3.982v7.123h3.982c0,9.141,0,20.154,0,20.154h8.379c0,0,0-11.122,0-20.154h5.652
		L44.387,26.49z"/>
</g>
</svg>
