<?xml version="1.0" encoding="utf-8"?>
<!-- Generator: Adobe Illustrator 16.0.0, SVG Export Plug-In . SVG Version: 6.00 Build 0)  -->
<!DOCTYPE svg PUBLIC "-//W3C//DTD SVG 1.1//EN" "http://www.w3.org/Graphics/SVG/1.1/DTD/svg11.dtd">
<svg version="1.1" id="Layer_1" xmlns="http://www.w3.org/2000/svg" xmlns:xlink="http://www.w3.org/1999/xlink" x="0px" y="0px"
	 width="70px" height="70px" viewBox="0 0 70 70" enable-background="new 0 0 70 70" xml:space="preserve">
<g>
	<path fill-rule="evenodd" clip-rule="evenodd" fill="#F49B6C" d="M70,35c0,19.329-15.671,35-35,35C15.668,70,0,54.329,0,35
		S15.668,0,35,0C54.329,0,70,15.671,70,35"/>
	<path fill-rule="evenodd" clip-rule="evenodd" fill="#F8C3A7" d="M2.626,48.31C7.863,61.037,20.382,70,35,70
		c14.616,0,27.134-8.963,32.374-21.69H2.626z"/>
	<polygon fill-rule="evenodd" clip-rule="evenodd" fill="#E08E64" points="59.847,48.269 10.154,48.269 20.237,22.008 
		24.912,30.792 39.454,32.522 53.713,24.117 	"/>
	<polygon fill-rule="evenodd" clip-rule="evenodd" fill="#E6B49B" points="54.391,55.467 16.594,55.467 10.153,48.269 
		59.846,48.269 	"/>
	<path fill="#F9F0DF" d="M53.713,24.117c-1.322,0.588-2.746,0.984-4.24,1.163c1.525-0.914,2.696-2.36,3.247-4.084
		c-1.427,0.845-3.006,1.46-4.688,1.792c-1.347-1.436-3.266-2.331-5.389-2.331c-4.076,0-7.382,3.305-7.382,7.382
		c0,0.578,0.065,1.142,0.191,1.681c-6.135-0.307-11.575-3.246-15.216-7.712c-0.635,1.09-1,2.358-1,3.711
		c0,2.562,1.303,4.821,3.284,6.146c-1.209-0.04-2.348-0.372-3.343-0.925c0,0.032,0,0.062,0,0.094c0,3.576,2.544,6.56,5.922,7.238
		c-0.62,0.169-1.271,0.258-1.945,0.258c-0.476,0-0.938-0.045-1.39-0.132c0.94,2.933,3.666,5.067,6.896,5.127
		c-2.526,1.979-5.708,3.16-9.168,3.16c-0.596,0-1.183-0.035-1.761-0.103c3.268,2.095,7.147,3.316,11.316,3.316
		c13.578,0,21.003-11.248,21.003-21.004c0-0.319-0.006-0.639-0.021-0.955C51.473,26.899,52.726,25.598,53.713,24.117z"/>
	<path fill="#F1E6D4" d="M22.521,31.864c-1.209-0.04-2.348-0.372-3.343-0.925c0,0.032,0,0.062,0,0.094
		c0,3.576,2.544,6.56,5.922,7.238c-0.62,0.169-1.271,0.258-1.945,0.258c-0.476,0-0.938-0.045-1.39-0.132
		c0.94,2.933,3.666,5.067,6.896,5.127c-2.526,1.979-5.708,3.16-9.168,3.16c-0.596,0-1.183-0.035-1.761-0.103
		c3.268,2.095,7.147,3.316,11.316,3.316c8.616,0,14.754-4.529,18.089-10.332C41.524,37.641,34.464,35.277,22.521,31.864z"/>
</g>
</svg>
